# xmcd
#
# Track frame offsets: 
#        150
#        18040
#        43865
#        60580
#        71425
#        86052
#        114787
#        133395
#        149322
#        167580
#        184117
#        203487
#        220555
#        237862
#        260280
#
# Disc length: 3843 seconds
#
# Revision: 0
# Processed by: cddbd v1.4PL0 Copyright (c) Steve Scherf et al.
# Submitted via: ExactAudioCopy v0.90b3
#
DISCID=c80f010f
DTITLE=Bill Withers - Gold Collection
DYEAR=1990
DGENRE=Soul
TTITLE0=Just The Two Of Us
TTITLE1=Ain't No Sunshine (The Total Eclipse Mix)
TTITLE2=I Want To Spend The Night
TTITLE3=The Best You Can
TTITLE4=Who Is He And What Is He To You
TTITLE5=Make Love To Your Mind
TTITLE6=Lovely Day (7'' Sunshine Mix)
TTITLE7=It Ain't Because Of Me Baby
TTITLE8=Oh Yeah!
TTITLE9=Use Me
TTITLE10=Lean On Me
TTITLE11=Kissing My Love
TTITLE12=All Because Of You
TTITLE13=Love
TTITLE14=Harlem '89 (Extended Remix)
EXTD=
EXTT0=
EXTT1=
EXTT2=
EXTT3=
EXTT4=
EXTT5=
EXTT6=
EXTT7=
EXTT8=
EXTT9=
EXTT10=
EXTT11=
EXTT12=
EXTT13=
EXTT14=
PLAYORDER=
